solid tri 
   facet normal 0.0 0.0 -1.0 
     outer loop 
       vertex -1.5 -1.5 1.4 
       vertex 0.0 1.7 1.4 
       vertex 1.5 -1.5 1.4 
     endloop 
   endfacet 
   facet normal 0.0 0.88148 0.472221 
     outer loop 
       vertex -1.5 -1.5 1.4 
       vertex 1.5 -1.5 1.4 
       vertex 0.0 0.0 -1.4 
     endloop 
   endfacet 
   facet normal -0.876814 -0.411007 0.24954 
     outer loop 
       vertex 1.5 -1.5 1.4 
       vertex 0.0 1.7 1.4 
       vertex 0.0 0.0 -1.4 
     endloop 
   endfacet 
   facet normal 0.876814 -0.411007 0.24954 
     outer loop 
       vertex 0.0 1.7 1.4 
       vertex -1.5 -1.5 1.4 
       vertex 0.0 0.0 -1.4 
     endloop 
   endfacet 
endsolid tri 
